<?xml version="1.0" standalone="no"?>
<!DOCTYPE svg PUBLIC "-//W3C//DTD SVG 20010904//EN"
 "http://www.w3.org/TR/2001/REC-SVG-20010904/DTD/svg10.dtd">
<svg version="1.0" xmlns="http://www.w3.org/2000/svg"
 width="700.000000pt" height="700.000000pt" viewBox="0 0 700.000000 700.000000"
 preserveAspectRatio="xMidYMid meet">
<metadata>
Created by potrace 1.11, written by Peter Selinger 2001-2013
</metadata>
<g transform="translate(0.000000,700.000000) scale(0.100000,-0.100000)"
fill="#000000" stroke="none">
<path d="M3517 6674 c-167 -150 -286 -305 -321 -421 -10 -32 -25 -73 -34 -92
-16 -33 -62 -69 -91 -70 -31 -2 -180 -101 -252 -169 -198 -185 -345 -432 -385
-645 -14 -74 -11 -204 7 -289 53 -255 222 -456 458 -547 102 -39 144 -46 286
-46 109 1 127 4 195 30 132 53 248 189 279 327 10 43 6 166 -5 198 -3 8 -8 86
-10 172 -6 223 12 300 101 438 96 149 127 300 80 393 -14 27 -41 64 -62 83
-49 46 -147 93 -208 99 -102 10 -106 13 -99 68 7 62 44 208 60 237 7 14 31 43
54 64 58 55 85 167 54 218 -13 20 -49 4 -107 -48z"/>
<path d="M5067 6233 c-39 -52 -52 -107 -39 -168 5 -27 8 -68 7 -90 -3 -48 -86
-245 -109 -260 -13 -8 -30 -2 -74 21 -31 17 -74 37 -95 44 -54 17 -156 15
-215 -4 -81 -27 -161 -119 -177 -202 -2 -16 -9 -45 -15 -64 -5 -19 -13 -80
-16 -135 -7 -107 -27 -185 -71 -262 -25 -46 -144 -212 -174 -243 -117 -123
-151 -174 -170 -257 -40 -178 9 -334 145 -459 78 -71 230 -153 321 -173 88
-20 99 -21 170 -21 125 0 225 24 340 82 234 117 364 302 420 593 14 76 17 354
4 414 -4 20 -13 63 -19 96 -22 112 -61 208 -121 303 -25 40 -29 53 -23 87 3
22 10 45 14 50 43 54 49 330 12 520 -12 61 -27 122 -33 138 -16 38 -48 35 -82
-10z"/>
<path d="M1004 5348 c-127 -217 -172 -326 -208 -498 -21 -102 -36 -147 -82
-240 -32 -63 -61 -124 -66 -135 -14 -33 -47 -174 -53 -224 -3 -25 -11 -80 -17
-121 -11 -77 -13 -265 -4 -310 3 -14 9 -41 12 -60 31 -184 171 -386 334 -485
208 -126 513 -131 757 -13 183 88 266 229 258 438 -4 96 -19 148 -94 313 -83
184 -181 444 -237 632 -45 150 -61 180 -119 234 -98 91 -229 123 -335 82 -69
-26 -77 -26 -91 1 -31 58 -18 140 36 222 42 62 51 102 35 150 -12 36 -52 76
-76 76 -7 0 -30 -28 -50 -62z"/>
<path d="M6410 3822 c-87 -28 -112 -65 -115 -171 -2 -42 -9 -92 -17 -111 -21
-48 -66 -100 -88 -100 -11 0 -38 23 -62 54 -90 113 -272 147 -410 75 -22 -11
-127 -97 -158 -129 -23 -24 -231 -193 -261 -212 -14 -9 -32 -23 -40 -30 -8 -8
-90 -68 -184 -134 -183 -129 -231 -171 -282 -251 -134 -210 -98 -420 107 -623
175 -175 349 -251 557 -246 235 6 435 117 596 331 85 113 220 404 241 520 9
50 16 105 21 170 7 86 26 160 71 280 48 129 59 194 70 421 6 133 5 142 -12
152 -11 5 -26 7 -34 4z"/>
<path d="M2769 3226 c-2 -2 -26 -6 -54 -10 -108 -12 -239 -64 -314 -123 -45
-36 -106 -109 -135 -164 -7 -13 -30 -55 -51 -94 -21 -38 -53 -99 -72 -135 -41
-79 -149 -185 -229 -224 -89 -44 -227 -85 -301 -91 -37 -2 -101 -7 -142 -10
-95 -7 -149 -33 -226 -110 -88 -87 -158 -234 -182 -383 -10 -59 -10 -220 -1
-287 24 -169 127 -378 251 -508 121 -125 396 -263 902 -452 99 -36 189 -70
200 -75 73 -30 527 -181 620 -206 249 -67 366 -83 575 -79 96 2 189 6 206 8
190 32 377 118 499 229 231 210 325 443 275 684 -27 128 -85 216 -200 301
-118 88 -199 198 -245 334 -25 77 -28 95 -25 209 6 299 3 405 -13 480 -45 205
-178 352 -450 498 -109 59 -297 135 -365 148 -13 3 -49 12 -80 20 -96 27 -212
42 -328 42 -62 1 -114 -1 -115 -2z"/>
</g>
</svg>
