<svg viewBox="0 0 339 66" version="1.1" xmlns="http://www.w3.org/2000/svg" xmlns:xlink="http://www.w3.org/1999/xlink">
    <!-- Generator: Sketch 64 (93537) - https://sketch.com -->
    <title>Artboard</title>
    <desc>Created with Sketch.</desc>
    <g id="Artboard" stroke="none" stroke-width="1" fill="none" fill-rule="evenodd">
        <g id="anima-logo_0" transform="translate(-1.000000, 0.000000)" fill-rule="nonzero">
            <path d="M7.93,57.36 C8.93,58.73 10.33,59.99 19.72,63.36 C26.92,65.96 29.51,66.44 32.48,66.24 C34.3792639,66.2203191 36.2379895,65.6882675 37.86,64.7 C38.14,64.52 42.06,61.88 41.86,57.99 C41.8426726,57.0076917 41.5630156,56.0478812 41.05,55.21 C40.22,53.96 39.45,54.05 38.34,52.64 C37.6473371,51.7643624 37.1741723,50.7357433 36.96,49.64 C36.8717457,48.7642026 36.891898,47.8808615 37.02,47.01 C37.1486832,45.6084574 37.0198969,44.1951972 36.64,42.84 C35.74,40.27 33.1,38.97 31.39,38.13 C30.3045892,37.6077848 29.1641636,37.2086358 27.99,36.94 C26.8053404,36.5900103 25.5752208,36.4181306 24.34,36.43 C23.51,36.43 20.22,36.57 18.69,38.66 C18.2509849,39.3266333 17.8503347,40.0177548 17.49,40.73 C16.79,42 16.8,42.13 16.49,42.52 C15.6976037,43.492196 14.6204682,44.1916347 13.41,44.52 C10.9,45.46 10.22,44.63 8.82,45.37 C6.43,46.58 5.95,49.99 5.87,50.69 C5.69432766,53.0931775 6.42976374,55.4744195 7.93,57.36 Z" id="Path" fill="#E73331"></path>
            <path d="M4.53,35.94 C5.84345849,36.7076718 7.36608679,37.0401998 8.88,36.89 C9.47,36.89 12.99,36.61 14.27,34.1 C14.6499938,33.2961947 14.8087816,32.4056024 14.73,31.52 C14.73,30.32 14.33,29.88 13.38,27.52 C12.70041,25.9487584 12.1029376,24.3432598 11.59,22.71 C11.12,21.14 11.08,20.58 10.45,19.89 C9.74600603,19.0837581 8.73031448,18.6177777 7.66,18.61 C6.79,18.7 6.42,19.23 6.05,18.99 C5.68,18.75 5.65,17.66 6.05,16.94 C6.29786108,16.6300684 6.51237848,16.2948849 6.69,15.94 C6.88208703,15.2852335 6.58479617,14.5859719 5.98,14.27 C5.74,14.27 5.56,14.55 5.14,15.36 C4.5249487,16.3985726 4.00291666,17.4894857 3.58,18.62 C3.4331074,19.5548642 3.22939672,20.4799111 2.97,21.39 C2.71725439,21.9584696 2.43349417,22.5126366 2.12,23.05 C1.6097483,24.2084833 1.3051963,25.4469948 1.22,26.71 C0.919576173,28.1713866 0.919576173,29.6786134 1.22,31.14 C1.64540688,33.1146568 2.83550796,34.8404832 4.53,35.94 L4.53,35.94 Z" id="Path" fill="#E73331"></path>
            <path d="M21.22,21.81 C22.1605174,23.0239126 23.4580796,23.9122705 24.93,24.35 C25.51,24.52 28.59,25.35 30.67,23.45 C31.313968,22.8593966 31.7871736,22.1064126 32.04,21.27 C32.44,19.9 31.89,19.33 31.92,16.85 C31.8622057,15.962454 31.9638091,15.0717302 32.22,14.22 C32.64,13.07 33.16,12.87 33.68,11.41 C34.0033655,10.7641011 34.1086271,10.0307782 33.98,9.32 C33.7702005,8.64280862 33.3273565,8.06179734 32.73,7.68 C32.222261,7.30506288 31.626406,7.0674097 31,6.99 C30.6916691,7.03961684 30.3755724,6.98693405 30.1,6.84 C29.98,6.7 29.96,6.5 30.22,5.38 C30.3037677,4.87888705 30.444687,4.38902457 30.64,3.92 C31.02,3.28 31.35,3.35 31.64,2.78 C31.93,2.21 31.99,1.17 31.64,1.02 C31.29,0.87 30.99,1.29 30.18,2.02 C29.3209315,2.75493148 28.5849656,3.62256104 28,4.59 C27.68816,5.05940995 27.4456629,5.57134827 27.28,6.11 C27.2593096,6.47625136 27.1227339,6.82644562 26.89,7.11 C26.668261,7.25612392 26.4254443,7.36741488 26.17,7.44 C26.17,7.44 25.9,7.55 25.33,7.86 C24.7170735,8.20978901 24.1466229,8.629238 23.63,9.11 C22.7349923,9.93544185 21.9547067,10.8771659 21.31,11.91 C20.4052563,13.1872812 19.8283323,14.6673658 19.63,16.22 C19.4242872,18.2182208 19.9934309,20.2191725 21.22,21.81 L21.22,21.81 Z" id="Path" fill="#E73331"></path>
            <path d="M43.48,28.72 C42.0096766,29.1684525 40.4356636,29.1439679 38.98,28.65 C38.41,28.45 35.43,27.32 34.81,24.65 C34.6253505,23.7962796 34.673706,22.9086107 34.95,22.08 C35.41,20.73 36.2,20.58 37.6,18.54 C38.1583163,17.8486026 38.5884262,17.06289 38.87,16.22 C39.19,15.04 38.87,14.58 39.3,13.08 C39.4192899,12.3610135 39.7704788,11.7007784 40.3,11.2 C40.8705657,10.7598348 41.5805066,10.5397531 42.3,10.58 C42.9311332,10.5685668 43.5545464,10.7201148 44.11,11.02 C44.3323261,11.2392909 44.6203235,11.3797775 44.93,11.42 C45.11,11.42 45.24,11.22 45.68,10.16 C45.9013112,9.70075184 46.0690798,9.21757836 46.18,8.72 C46.24,7.98 45.93,7.85 46.01,7.21 C46.09,6.57 46.65,5.7 47.01,5.75 C47.37,5.8 47.39,6.35 47.6,7.45 C47.878717,8.54680522 47.9799993,9.68116654 47.9,10.81 C47.8838138,11.3744152 47.7861375,11.9335281 47.61,12.47 C47.3964401,12.7879697 47.2944425,13.1678229 47.32,13.55 C47.417968,13.7956937 47.5528537,14.0249995 47.72,14.23 C47.72,14.23 47.87,14.48 48.16,15.05 C48.4595999,15.6886437 48.6844233,16.3597585 48.83,17.05 C49.0844721,18.2387629 49.178642,19.4562448 49.11,20.67 C49.1120525,22.2392365 48.727379,23.7847998 47.99,25.17 C46.9894323,26.8808618 45.3780134,28.1492735 43.48,28.72 Z" id="Path" fill="#E73331"></path>
            <path d="M50.07,49.63 C48.5523478,49.5901049 47.0860154,49.0721641 45.88,48.15 C45.4,47.81 42.54,45.75 42.76,42.94 C42.8707197,42.0553299 43.2159765,41.2163558 43.76,40.51 C44.43,39.51 44.96,39.32 47,37.84 C48.4068184,36.8643777 49.7619796,35.8162974 51.06,34.7 C52.29,33.61 52.62,33.15 53.52,32.9 C54.5289072,32.598721 55.6180751,32.7366823 56.52,33.28 C57.21,33.81 57.25,34.46 57.69,34.45 C58.13,34.44 58.69,33.53 58.8,32.72 C58.7608867,32.3376644 58.7608867,31.9523356 58.8,31.57 C58.9988927,30.9316653 59.613553,30.5163543 60.28,30.57 C60.49,30.69 60.49,31.03 60.43,31.94 C60.4059601,33.1458157 60.2754529,34.3471511 60.04,35.53 C59.6728448,36.400127 59.3589323,37.291772 59.1,38.2 C59.0110908,38.7998694 58.954343,39.4040664 58.93,40.01 C58.7652253,41.2556596 58.3863107,42.4634497 57.81,43.58 C57.2774949,44.9717011 56.4677839,46.240702 55.43,47.31 C54.0211064,48.7626915 52.0934153,49.5970653 50.07,49.63 Z" id="Path" fill="#E73331"></path>
            <path d="M320.73,50.97 L302.62,50.97 L300.11,59.49 L283.83,59.49 L303.22,7.89 L320.61,7.89 L340,59.49 L323.3,59.49 L320.73,50.97 Z M317.42,39.81 L311.72,21.26 L306.08,39.81 L317.42,39.81 Z" id="Shape" fill="#000000"></path>
            <path d="M108.58,50.97 L90.47,50.97 L85.99,59.49 L69.71,59.49 L101.02,7.89 L118.41,7.89 L125.89,59.49 L109.22,59.49 L108.58,50.97 Z M107.85,39.81 L106.44,21.26 L96.51,39.81 L107.84,39.81 L107.85,39.81 Z" id="Shape" fill="#000000"></path>
            <polygon id="Path" fill="#000000" points="142.98 7.89 157.87 7.89 170.71 36.44 177.3 7.89 192.3 7.89 180.39 59.49 165.39 59.49 152.6 31.16 146.06 59.49 131.06 59.49"></polygon>
            <polygon id="Path" fill="#000000" points="203.55 7.89 219.55 7.89 207.62 59.49 191.62 59.49"></polygon>
            <polygon id="Path" fill="#000000" points="230.79 7.89 251.79 7.89 252.63 39.29 267.91 7.89 288.91 7.89 276.92 59.49 263.86 59.49 272.94 20.14 253.8 59.49 241.98 59.49 240.98 20.14 231.9 59.49 218.88 59.49"></polygon>
        </g>
    </g>
</svg>